<svg width="108" height="32" viewBox="0 0 108 32" fill="none" xmlns="http://www.w3.org/2000/svg">
<path d="M11.7241 31.509C7.76552 31.509 4.83897 30.1659 2.94448 27.4797C1.07828 24.7934 0.145172 21.0328 0.145172 16.1976C0.145172 11.3624 1.07828 7.60172 2.94448 4.91552C4.83897 2.22931 7.76552 0.886206 11.7241 0.886206C15.6828 0.886206 18.5952 2.22931 20.4614 4.91552C22.3559 7.60172 23.3031 11.3624 23.3031 16.1976C23.3031 21.0328 22.3559 24.7934 20.4614 27.4797C18.5952 30.1659 15.6828 31.509 11.7241 31.509ZM11.7241 26.3769C13.5338 26.3769 14.7779 25.7124 15.4566 24.3834C16.1634 23.0262 16.5169 21.1459 16.5169 18.7424V13.6103C16.5169 11.2352 16.1634 9.3831 15.4566 8.05414C14.7779 6.6969 13.5338 6.01827 11.7241 6.01827C9.91448 6.01827 8.65621 6.6969 7.94931 8.05414C7.27069 9.3831 6.93138 11.2352 6.93138 13.6103V18.7848C6.93138 21.16 7.27069 23.0262 7.94931 24.3834C8.65621 25.7124 9.91448 26.3769 11.7241 26.3769ZM29.2669 31H22.9896V1.39517H34.4414C35.8834 1.39517 37.17 1.62138 38.301 2.07379C39.4321 2.49793 40.3793 3.12 41.1427 3.94C41.9345 4.76 42.5283 5.74966 42.9241 6.90897C43.32 8.06828 43.5179 9.36897 43.5179 10.811C43.5179 12.9034 43.0655 14.699 42.1607 16.1976C41.2558 17.6962 39.9693 18.6859 38.301 19.1666L44.1117 31H37.1558L32.1934 20.0148H29.2669V31ZM32.9145 15.0948C34.4131 15.0948 35.4452 14.8121 36.0107 14.2466C36.6045 13.681 36.9014 12.7479 36.9014 11.4472V10.1748C36.9014 8.87414 36.6045 7.94103 36.0107 7.37552C35.4452 6.81 34.4131 6.52724 32.9145 6.52724H29.2669V15.0948H32.9145ZM44.4344 31V1.39517H50.8389V25.7831H63.5631V31H44.4344ZM74.0227 31.509C70.0641 31.509 67.1375 30.1659 65.2431 27.4797C63.3768 24.7934 62.4437 21.0328 62.4437 16.1976C62.4437 11.3624 63.3768 7.60172 65.2431 4.91552C67.1375 2.22931 70.0641 0.886206 74.0227 0.886206C77.9813 0.886206 80.8937 2.22931 82.76 4.91552C84.6544 7.60172 85.6017 11.3624 85.6017 16.1976C85.6017 21.0328 84.6544 24.7934 82.76 27.4797C80.8937 30.1659 77.9813 31.509 74.0227 31.509ZM74.0227 26.3769C75.8324 26.3769 77.0765 25.7124 77.7551 24.3834C78.462 23.0262 78.8155 21.1459 78.8155 18.7424V13.6103C78.8155 11.2352 78.462 9.3831 77.7551 8.05414C77.0765 6.6969 75.8324 6.01827 74.0227 6.01827C72.2131 6.01827 70.9548 6.6969 70.2479 8.05414C69.5693 9.3831 69.23 11.2352 69.23 13.6103V18.7848C69.23 21.16 69.5693 23.0262 70.2479 24.3834C70.9548 25.7124 72.2131 26.3769 74.0227 26.3769ZM90.293 31L82.4465 1.39517H89.5296L93.0075 16.4521L94.7465 24.9772H95.0858L96.8672 16.4521L100.388 1.39517H107.131L99.2848 31H90.293Z" fill="#1BFF07"/>
</svg>
